<?xml version="1.0" encoding="UTF-8" standalone="no"?>
<svg
   xmlns:dc="http://purl.org/dc/elements/1.1/"
   xmlns:cc="http://creativecommons.org/ns#"
   xmlns:rdf="http://www.w3.org/1999/02/22-rdf-syntax-ns#"
   xmlns:svg="http://www.w3.org/2000/svg"
   xmlns="http://www.w3.org/2000/svg"
   xmlns:sodipodi="http://sodipodi.sourceforge.net/DTD/sodipodi-0.dtd"
   xmlns:inkscape="http://www.inkscape.org/namespaces/inkscape"
   version="1.1"
   id="R"
   x="0px"
   y="0px"
   width="960.21191"
   height="1000"
   viewBox="0 0 960.21191 1000"
   xml:space="preserve"
   sodipodi:docname="ROBLOX_Logo_2015.svg"
   inkscape:version="1.0.2 (e86c870879, 2021-01-15)"><metadata
   id="metadata18"><rdf:RDF><cc:Work
       rdf:about=""><dc:format>image/svg+xml</dc:format><dc:type
         rdf:resource="http://purl.org/dc/dcmitype/StillImage" /></cc:Work></rdf:RDF></metadata><defs
   id="defs16">
	
	

		
	
		
	</defs><sodipodi:namedview
   pagecolor="#ffffff"
   bordercolor="#666666"
   borderopacity="1"
   objecttolerance="10"
   gridtolerance="10"
   guidetolerance="10"
   inkscape:pageopacity="0"
   inkscape:pageshadow="2"
   inkscape:window-width="1366"
   inkscape:window-height="705"
   id="namedview14"
   showgrid="false"
   inkscape:zoom="0.5"
   inkscape:cx="222.10244"
   inkscape:cy="473.69418"
   inkscape:window-x="-8"
   inkscape:window-y="-8"
   inkscape:window-maximized="1"
   inkscape:current-layer="R" />
<style
   type="text/css"
   id="style2">
	.st0{fill:#E2231A;}
	.st1{fill:#FFFFFF;}
</style>
<g
   id="g851"><path
     class="st0"
     d="M 955.12996,945.15099 C 808.29655,809.72211 681.42107,699.95345 547.41777,587.33365 c 79.83175,-2.85114 166.79135,-7.12784 246.6231,-14.25568 8.55341,-1.42556 17.10681,-4.2767 24.23465,-9.97897 29.9369,-24.23464 72.70392,-67.00165 99.78969,-104.06639 4.2767,-7.12784 7.12784,-14.25567 4.2767,-22.80908 C 893.83057,307.92249 845.36129,153.96125 775.5085,17.106805 769.80623,7.1278355 758.4017,0 746.99716,0 488.96952,15.681238 242.34641,51.320416 24.234641,95.512996 9.97897,98.36413 3e-7,111.19423 3e-7,125.4499 4.2767016,390.60539 18.532373,664.31427 38.490312,933.74645 c 1.425567,14.25567 11.404537,25.66021 25.660208,28.51134 86.95959,12.83011 172.49362,24.23464 289.39012,31.36248 9.97897,0 18.53237,-9.97897 14.25567,-19.95794 -39.91588,-112.6198 -102.64083,-336.43384 -112.6198,-376.34972 9.97897,0 14.25567,-1.42556 22.80907,-1.42556 52.74599,106.91753 132.57775,255.17651 189.60043,377.77528 7.12783,15.68124 22.80907,25.66021 39.91588,25.66021 135.42887,2.85116 283.68785,-2.85114 439.07466,-25.66021 12.83011,-4.2767 18.53238,-19.95794 8.55341,-28.51134 z M 453.33034,367.79631 c -51.32042,5.70227 -129.72661,11.40454 -179.62146,14.25567 -4.2767,-31.36247 -8.5534,-76.98062 -9.97897,-109.76866 61.29939,1.42556 124.02434,2.85113 189.60043,8.5534 0,28.51134 0,57.02268 0,86.95959 z"
     id="path4"
     style="stroke-width:14.2557" /><path
     class="st1"
     d="m 788.33861,520.33199 c 25.6602,-22.80907 55.59711,-51.32041 75.55505,-84.10846 C 836.80789,316.4759 794.04087,185.32372 735.59262,62.724952 511.77859,78.406191 269.43218,109.76867 58.448251,149.68455 c 8.553403,282.26228 21.383507,513.20415 42.767009,755.55056 67.00166,9.97897 112.61981,15.68124 188.17486,21.3835 -37.06474,-131.15217 -65.57609,-238.0697 -92.66186,-370.64744 35.63918,-1.42557 72.70392,-2.85114 109.76867,-4.2767 88.38516,142.55671 139.70557,245.19754 225.2396,384.90311 105.49196,0 202.43053,-2.85113 300.79466,-11.40453 C 691.40004,786.91304 560.24787,664.31427 426.24456,545.9922 554.5456,538.86436 684.27221,530.31096 788.33861,520.33199 Z M 222.38847,436.22353 c -9.97897,-71.27835 -12.83011,-142.55671 -15.68124,-213.83506 99.7897,0 205.28166,4.2767 303.64579,12.8301 2.85114,48.46928 2.85114,128.30104 0,178.19589 -92.66186,9.97897 -189.60042,17.1068 -287.96455,22.80907 z"
     id="path8"
     style="stroke-width:14.2557" /></g>
</svg>
